<!-- icon666.com - MILLIONS vector ICONS FREE --><svg viewBox="0 0 64 64" xmlns="http://www.w3.org/2000/svg"><g id="resume"><path d="m24 44h16v1h-16zm0-7h16v-1h-16zm6-9a3 3 0 0 0 -6 0v1h6zm-3-8a1 1 0 1 0 -1-1 1.0007 1.0007 0 0 0 1 1zm8 9h5v-1h-5zm9-14v34a1.0007 1.0007 0 0 1 -1 1h-22a1.0007 1.0007 0 0 1 -1-1v-34a1.0007 1.0007 0 0 1 1-1h22a1.0007 1.0007 0 0 1 1 1zm-20 4a3 3 0 1 0 3-3 3.0033 3.0033 0 0 0 -3 3zm-2 11a.9994.9994 0 0 0 1 1h8a.9994.9994 0 0 0 1-1v-2a5 5 0 0 0 -10 0zm20 13a.9994.9994 0 0 0 -1-1h-18a.9994.9994 0 0 0 -1 1v3a.9994.9994 0 0 0 1 1h18a.9994.9994 0 0 0 1-1zm0-8a.9994.9994 0 0 0 -1-1h-18a.9994.9994 0 0 0 -1 1v3a.9994.9994 0 0 0 1 1h18a.9994.9994 0 0 0 1-1zm0-8a.9994.9994 0 0 0 -1-1h-7a.9994.9994 0 0 0 -1 1v3a.9994.9994 0 0 0 1 1h7a.9994.9994 0 0 0 1-1zm0-7a.9994.9994 0 0 0 -1-1h-7a.9994.9994 0 0 0 -1 1v3a.9994.9994 0 0 0 1 1h7a.9994.9994 0 0 0 1-1zm22 12a32 32 0 1 1 -32-32 32.0367 32.0367 0 0 1 32 32zm-18-17a3.0033 3.0033 0 0 0 -3-3h-22a3.0033 3.0033 0 0 0 -3 3v34a3.0033 3.0033 0 0 0 3 3h22a3.0033 3.0033 0 0 0 3-3zm-11 7h5v-1h-5z"></path></g></svg>